<svg width="170" height="50" viewBox="0 0 170 50" fill="none" xmlns="http://www.w3.org/2000/svg">
<path d="M70.3212 27.7388L68.7254 27.9483C68.7057 28.7864 68.686 29.6245 68.6663 30.4626C68.6663 31.2807 68.6663 32.1188 68.6663 32.9769V34.2639C67.6222 34.8426 66.588 35.2717 65.5636 35.551C64.5392 35.8503 63.436 36 62.2539 36C60.6976 36 59.2891 35.7406 58.0283 35.2218C56.7674 34.7029 55.6839 33.9946 54.7777 33.0966C53.8912 32.1787 53.2017 31.1011 52.7092 29.8639C52.2364 28.6068 52 27.2399 52 25.7633C52 24.2866 52.2463 22.9197 52.7388 21.6626C53.2313 20.4054 53.9306 19.3279 54.8368 18.4299C55.7627 17.512 56.8758 16.7937 58.176 16.2748C59.4762 15.756 60.934 15.4966 62.5494 15.4966C63.4951 15.4966 64.4407 15.6063 65.3863 15.8258C66.3319 16.0254 67.3267 16.3846 68.3708 16.9034L68.489 21.1537H66.125L65.5931 17.8313C64.6672 17.3723 63.7216 17.1429 62.7563 17.1429C60.8454 17.1429 59.3285 17.8912 58.2056 19.3878C57.0826 20.8844 56.5212 23.0095 56.5212 25.7633C56.5212 27.1202 56.6788 28.3374 56.994 29.415C57.3289 30.4726 57.7722 31.3705 58.3238 32.1088C58.8951 32.8472 59.5649 33.4059 60.3332 33.785C61.1015 34.1642 61.9387 34.3537 62.8449 34.3537C63.4163 34.3537 63.9383 34.2839 64.4111 34.1442V32.9769C64.4111 32.1388 64.4013 31.3107 64.3816 30.4925C64.3816 29.6744 64.3717 28.8463 64.352 28.0082L62.1653 27.7388V26.2422H70.3212V27.7388Z" fill="#A1A6B6"/>
<path d="M87.8463 34.234V35.551L82.4091 35.8503L82.2022 33.366C81.4536 34.224 80.6754 34.8825 79.8677 35.3415C79.06 35.7805 78.1834 36 77.2378 36C76.6074 36 76.0361 35.9002 75.5239 35.7007C75.0313 35.5211 74.5979 35.2218 74.2236 34.8027C73.869 34.3637 73.5932 33.805 73.3962 33.1265C73.1992 32.4481 73.1106 31.61 73.1303 30.6122L73.2485 22.9796L71.6232 22.6803V21.483L76.9423 20.9442L77.2969 21.1837L77.1491 25.434V30.0435C77.1491 31.3605 77.3166 32.2785 77.6515 32.7973C77.9864 33.2961 78.4198 33.5456 78.9517 33.5456C79.4639 33.5456 79.9859 33.376 80.5178 33.0367C81.0695 32.6975 81.6014 32.2785 82.1136 31.7796L82.2318 22.9796L80.6065 22.6803V21.5429L85.8664 20.9442L86.2211 21.1837L86.1324 25.434V33.8748L87.8463 34.234Z" fill="#A1A6B6"/>
<path d="M97.8805 27.8286C97.5062 27.9283 97.1516 28.0381 96.8167 28.1578C96.5015 28.2576 96.2257 28.3574 95.9893 28.4571C95.1224 28.7964 94.5216 29.2254 94.1867 29.7442C93.8518 30.263 93.6843 30.8417 93.6843 31.4803C93.6843 31.8794 93.7336 32.1986 93.8321 32.4381C93.9503 32.6775 94.0882 32.8771 94.2458 33.0367C94.6595 33.4558 95.2111 33.6653 95.9006 33.6653C96.2158 33.6653 96.5212 33.6154 96.8167 33.5156C97.1122 33.3959 97.4668 33.1864 97.8805 32.8871V27.8286ZM104.441 33.6653C104.047 34.4834 103.594 35.0522 103.081 35.3714C102.589 35.6907 101.968 35.8503 101.22 35.8503C100.412 35.8503 99.7421 35.6907 99.2102 35.3714C98.6783 35.0522 98.304 34.6331 98.0873 34.1143C97.4175 34.7329 96.7674 35.2018 96.137 35.5211C95.5263 35.8404 94.758 36 93.8321 36C92.6501 36 91.6848 35.7007 90.9362 35.102C90.2073 34.4834 89.8428 33.5855 89.8428 32.4082C89.8428 31.9492 89.9118 31.5002 90.0497 31.0612C90.2073 30.6023 90.4831 30.1633 90.8771 29.7442C91.2908 29.3052 91.8522 28.8862 92.5614 28.4871C93.2706 28.088 94.1867 27.6989 95.3096 27.3197C95.6445 27.2 96.0385 27.0803 96.4916 26.9605C96.9447 26.8209 97.4077 26.6812 97.8805 26.5415V25.6435C97.8805 24.3864 97.6933 23.4884 97.319 22.9497C96.9447 22.4109 96.2848 22.1415 95.3391 22.1415C95.1815 22.1415 95.0239 22.1515 94.8663 22.1714C94.7284 22.1714 94.5807 22.1814 94.4231 22.2014L94.1867 23.9374C94.0882 24.7156 93.8518 25.2943 93.4775 25.6735C93.1032 26.0526 92.6599 26.2422 92.1477 26.2422C91.6946 26.2422 91.3006 26.1025 90.9657 25.8231C90.6505 25.5438 90.4437 25.1746 90.3452 24.7156C90.4831 23.5383 91.1036 22.5705 92.2068 21.8122C93.31 21.034 94.8072 20.6449 96.6985 20.6449C97.6244 20.6449 98.4124 20.7546 99.0625 20.9741C99.7323 21.1737 100.274 21.5129 100.688 21.9918C101.101 22.4508 101.407 23.0694 101.604 23.8476C101.801 24.6059 101.899 25.5438 101.899 26.6612V32.8272C101.899 33.1465 101.958 33.4059 102.077 33.6054C102.195 33.805 102.382 33.9048 102.638 33.9048C102.835 33.9048 102.993 33.8449 103.111 33.7252C103.229 33.6054 103.367 33.4558 103.525 33.2762L103.672 33.0966L104.441 33.6653Z" fill="#A1A6B6"/>
<path d="M111.272 23.8776C111.824 22.8599 112.454 22.0717 113.163 21.5129C113.872 20.9342 114.572 20.6449 115.261 20.6449C115.675 20.6449 116.099 20.7746 116.532 21.034C116.985 21.2934 117.29 21.7823 117.448 22.5007C117.448 23.1592 117.261 23.698 116.887 24.117C116.512 24.5161 116.01 24.7156 115.38 24.7156C114.611 24.7156 113.853 24.3066 113.104 23.4884L113.045 23.4286C112.69 23.7678 112.356 24.1569 112.04 24.5959C111.745 25.015 111.489 25.5039 111.272 26.0626V29.2653C111.272 29.9039 111.272 30.6322 111.272 31.4503C111.272 32.2685 111.282 33.0467 111.302 33.785L113.547 34.234V35.551H105.421V34.234L107.224 33.8748C107.243 33.1365 107.253 32.3483 107.253 31.5102C107.253 30.6522 107.253 29.9039 107.253 29.2653V27.5293C107.253 27.1102 107.253 26.751 107.253 26.4517C107.253 26.1524 107.243 25.873 107.224 25.6136C107.224 25.3342 107.214 25.0748 107.194 24.8354C107.194 24.576 107.184 24.2966 107.165 23.9973L105.185 23.7279V22.5905L110.533 20.6449L110.977 20.9442L111.272 23.8776Z" fill="#A1A6B6"/>
<path d="M128.308 23.9374C127.894 23.6381 127.48 23.3986 127.067 23.219C126.673 23.0395 126.269 22.9497 125.855 22.9497C125.422 22.9497 125.008 23.0594 124.614 23.2789C124.22 23.4984 123.865 23.8277 123.55 24.2667C123.255 24.7057 123.008 25.2644 122.811 25.9429C122.634 26.6014 122.545 27.3896 122.545 28.3075C122.545 30.1234 122.841 31.4703 123.432 32.3483C124.043 33.2263 124.791 33.6653 125.678 33.6653C126.111 33.6653 126.545 33.5755 126.978 33.3959C127.431 33.1964 127.874 32.9469 128.308 32.6476V23.9374ZM134.041 34.234V35.551L128.662 35.8503L128.426 34.0844C127.835 34.7029 127.195 35.1819 126.505 35.5211C125.816 35.8404 125.018 36 124.112 36C123.284 36 122.506 35.8404 121.777 35.5211C121.068 35.2018 120.447 34.7229 119.915 34.0844C119.403 33.4458 118.999 32.6576 118.704 31.7197C118.408 30.7619 118.261 29.6544 118.261 28.3973C118.261 27.2 118.418 26.1224 118.733 25.1646C119.068 24.2068 119.521 23.3986 120.093 22.7401C120.664 22.0617 121.324 21.5429 122.073 21.1837C122.841 20.8245 123.668 20.6449 124.555 20.6449C125.382 20.6449 126.111 20.7846 126.742 21.0639C127.372 21.3433 127.943 21.7424 128.456 22.2612V16.8435L126.092 16.5442V15.3469L132.031 14L132.445 14.2395L132.327 18.4898V33.8748L134.041 34.234Z" fill="#A1A6B6"/>
<path d="M143.793 27.8286C143.419 27.9283 143.064 28.0381 142.729 28.1578C142.414 28.2576 142.138 28.3574 141.902 28.4571C141.035 28.7964 140.434 29.2254 140.099 29.7442C139.764 30.263 139.597 30.8417 139.597 31.4803C139.597 31.8794 139.646 32.1986 139.745 32.4381C139.863 32.6775 140.001 32.8771 140.158 33.0367C140.572 33.4558 141.124 33.6653 141.813 33.6653C142.128 33.6653 142.434 33.6154 142.729 33.5156C143.025 33.3959 143.379 33.1864 143.793 32.8871V27.8286ZM150.353 33.6653C149.959 34.4834 149.506 35.0522 148.994 35.3714C148.501 35.6907 147.881 35.8503 147.132 35.8503C146.325 35.8503 145.655 35.6907 145.123 35.3714C144.591 35.0522 144.217 34.6331 144 34.1143C143.33 34.7329 142.68 35.2018 142.05 35.5211C141.439 35.8404 140.671 36 139.745 36C138.563 36 137.597 35.7007 136.849 35.102C136.12 34.4834 135.755 33.5855 135.755 32.4082C135.755 31.9492 135.824 31.5002 135.962 31.0612C136.12 30.6023 136.396 30.1633 136.79 29.7442C137.203 29.3052 137.765 28.8862 138.474 28.4871C139.183 28.088 140.099 27.6989 141.222 27.3197C141.557 27.2 141.951 27.0803 142.404 26.9605C142.857 26.8209 143.32 26.6812 143.793 26.5415V25.6435C143.793 24.3864 143.606 23.4884 143.232 22.9497C142.857 22.4109 142.197 22.1415 141.252 22.1415C141.094 22.1415 140.937 22.1515 140.779 22.1714C140.641 22.1714 140.493 22.1814 140.336 22.2014L140.099 23.9374C140.001 24.7156 139.764 25.2943 139.39 25.6735C139.016 26.0526 138.572 26.2422 138.06 26.2422C137.607 26.2422 137.213 26.1025 136.878 25.8231C136.563 25.5438 136.356 25.1746 136.258 24.7156C136.396 23.5383 137.016 22.5705 138.119 21.8122C139.223 21.034 140.72 20.6449 142.611 20.6449C143.537 20.6449 144.325 20.7546 144.975 20.9741C145.645 21.1737 146.187 21.5129 146.6 21.9918C147.014 22.4508 147.319 23.0694 147.516 23.8476C147.713 24.6059 147.812 25.5438 147.812 26.6612V32.8272C147.812 33.1465 147.871 33.4059 147.989 33.6054C148.107 33.805 148.295 33.9048 148.551 33.9048C148.748 33.9048 148.905 33.8449 149.023 33.7252C149.142 33.6054 149.28 33.4558 149.437 33.2762L149.585 33.0966L150.353 33.6653Z" fill="#A1A6B6"/>
<path d="M168 34.234V35.551H160.435V34.234L162.238 33.8748C162.257 33.1365 162.267 32.3483 162.267 31.5102C162.267 30.6721 162.267 29.9238 162.267 29.2653V26.3918C162.267 25.2544 162.149 24.4263 161.913 23.9075C161.676 23.3687 161.213 23.0993 160.524 23.0993C159.952 23.0993 159.391 23.259 158.839 23.5782C158.308 23.8776 157.756 24.3066 157.185 24.8653V29.2653C157.185 29.9039 157.185 30.6522 157.185 31.5102C157.185 32.3483 157.194 33.1365 157.214 33.8748L158.899 34.234V35.551H151.334V34.234L153.136 33.8748C153.156 33.1166 153.166 32.3184 153.166 31.4803C153.166 30.6422 153.166 29.9039 153.166 29.2653V27.5592C153.166 27.1401 153.166 26.781 153.166 26.4816C153.166 26.1624 153.156 25.873 153.136 25.6136C153.136 25.3342 153.126 25.0748 153.107 24.8354C153.107 24.576 153.097 24.2966 153.077 23.9973L151.097 23.7279V22.5905L156.446 20.6449L156.889 20.9442L157.096 23.3088C157.51 22.8299 157.894 22.4308 158.248 22.1116C158.623 21.7723 158.997 21.493 159.371 21.2735C159.746 21.054 160.13 20.8943 160.524 20.7946C160.937 20.6948 161.4 20.6449 161.913 20.6449C163.331 20.6449 164.415 21.0739 165.163 21.932C165.912 22.7701 166.286 24.0971 166.286 25.9129V29.2653C166.286 29.9238 166.286 30.6821 166.286 31.5401C166.286 32.3782 166.296 33.1565 166.316 33.8748L168 34.234Z" fill="#A1A6B6"/>
<path d="M6 5C3.79086 5 2 6.79086 2 9V41C2 42.8602 3.26986 44.4239 4.99001 44.8714C5.63285 43.0769 7.23421 41.5734 9.79408 40.3609C8.51737 39.8212 7.59073 39.1155 7.01416 38.2437C6.47876 37.3719 6.21107 36.4171 6.21107 35.3792C6.21107 33.9262 6.62291 32.5563 7.44659 31.2693C8.27027 29.9409 9.44402 28.6124 10.9678 27.284C9.27928 26.4122 8.02317 25.2498 7.19949 23.7968C6.41699 22.3438 6.02574 20.7248 6.02574 18.9397C6.02574 17.4867 6.27284 16.1582 6.76705 14.9543C7.30245 13.7089 8.10553 12.6295 9.17632 11.7162C10.2471 10.8029 11.5856 10.0972 13.1918 9.59901C14.8391 9.10084 16.7542 8.85176 18.9369 8.85176C21.1609 8.85176 23.0759 9.10084 24.6821 9.59901C26.3295 10.0972 27.6885 10.8029 28.7593 11.7162L35.6782 8.72721L36.6667 9.34992V14.1448H30.7979C31.5393 15.5148 31.9099 17.1131 31.9099 18.9397C31.9099 20.3511 31.6422 21.6588 31.1068 22.8627C30.5714 24.0667 29.7683 25.1253 28.6976 26.0386C27.6268 26.9104 26.2677 27.6161 24.6203 28.1558C23.0142 28.654 21.1197 28.903 18.9369 28.903C16.7954 28.903 14.9215 28.654 13.3153 28.1558C12.8211 29.0276 12.574 29.9824 12.574 31.0203C12.574 31.726 12.8417 32.3072 13.3771 32.7638C13.9125 33.179 14.8391 33.3866 16.157 33.3866H23.3848C25.7323 33.3866 27.7091 33.6149 29.3153 34.0715C30.9215 34.4867 32.2188 35.1094 33.2072 35.9397C34.2368 36.7284 34.9575 37.6833 35.3694 38.8041C35.8224 39.8835 36.0489 41.1082 36.0489 42.4781C36.0489 43.3505 35.9293 44.1911 35.69 45H38C40.2091 45 42 43.2091 42 41V9C42 6.79086 40.2091 5 38 5H6Z" fill="#A1A6B6"/>
<path d="M28.2171 45C28.1039 44.3165 27.7904 43.6834 27.2767 43.1008C26.6178 42.3951 25.444 42.0422 23.7555 42.0422H17.269C15.0039 42.0422 13.13 41.8554 11.6474 41.4818C11.3179 42.063 11.0708 42.6234 10.906 43.1631C10.7482 43.6802 10.666 44.2924 10.6594 45H28.2171Z" fill="#A1A6B6"/>
<path d="M15.8481 13.7089C16.5483 12.4635 17.5985 11.8408 18.9987 11.8408C20.3578 11.8408 21.3874 12.4635 22.0875 13.7089C22.8288 14.9128 23.1995 16.6149 23.1995 18.8151C23.1995 21.0569 22.8288 22.8212 22.0875 24.1082C21.3874 25.3536 20.3166 25.9763 18.8752 25.9763C17.4337 25.9763 16.3835 25.3536 15.7246 24.1082C15.1068 22.8627 14.7979 21.1192 14.7979 18.8774C14.7979 16.6356 15.148 14.9128 15.8481 13.7089Z" fill="#A1A6B6"/>
</svg>
