<svg width="170" height="50" viewBox="0 0 170 50" fill="none" xmlns="http://www.w3.org/2000/svg">
<g clip-path="url(#clip0)">
<path d="M150.741 10.1853H168.333V27.7779H163.704V18.1353L146.654 35.1853L143.333 31.865L160.383 14.8149H150.741V10.1853Z" fill="#A1A6B6"/>
<path d="M1.44266 38L10.6267 15.6H16.9307L25.9867 38H20.0347L17.9867 32.592H9.25066L7.17066 38H1.44266ZM10.9147 28.208H16.3547L13.6667 21.04L10.9147 28.208ZM31.7914 21.072V30.8C31.7914 31.7173 32.0687 32.464 32.6234 33.04C33.1994 33.5947 33.9461 33.872 34.8634 33.872C35.5247 33.872 36.1114 33.7547 36.6234 33.52C37.1354 33.2853 37.5621 32.9547 37.9034 32.528V21.072H43.0874V38H37.9034V36.848C37.2847 37.3173 36.5807 37.68 35.7914 37.936C35.0234 38.192 34.2127 38.32 33.3594 38.32C31.3754 38.32 29.7541 37.68 28.4954 36.4C27.2367 35.12 26.6074 33.488 26.6074 31.504V21.072H31.7914ZM48.6979 32.848V25.392H45.2739V21.072H48.6979V16.72L53.8819 15.6V21.072H58.6179V25.392H53.8819V31.824C53.8819 32.5707 54.0419 33.104 54.3619 33.424C54.7032 33.7227 55.2899 33.872 56.1219 33.872C56.5272 33.872 56.9112 33.8507 57.2739 33.808C57.6366 33.744 58.0312 33.648 58.4579 33.52V37.712C57.9886 37.8613 57.3912 37.9787 56.6659 38.064C55.9406 38.1707 55.3326 38.224 54.8419 38.224C52.8152 38.224 51.2792 37.776 50.2339 36.88C49.2099 35.9627 48.6979 34.6187 48.6979 32.848ZM59.8737 29.552C59.8737 28.336 60.1083 27.1947 60.5777 26.128C61.0683 25.04 61.719 24.1013 62.5297 23.312C63.3617 22.5227 64.3323 21.904 65.4417 21.456C66.5723 20.9867 67.7777 20.752 69.0577 20.752C70.3377 20.752 71.5323 20.9867 72.6417 21.456C73.7723 21.904 74.743 22.5227 75.5537 23.312C76.3857 24.1013 77.0363 25.04 77.5057 26.128C77.9963 27.1947 78.2417 28.336 78.2417 29.552C78.2417 30.768 77.9963 31.92 77.5057 33.008C77.0363 34.0747 76.3857 35.0027 75.5537 35.792C74.743 36.5813 73.7723 37.2 72.6417 37.648C71.5323 38.096 70.3377 38.32 69.0577 38.32C67.7777 38.32 66.5723 38.096 65.4417 37.648C64.3323 37.2 63.3617 36.5813 62.5297 35.792C61.719 35.0027 61.0683 34.0747 60.5777 33.008C60.1083 31.92 59.8737 30.768 59.8737 29.552ZM69.0577 33.84C70.2097 33.84 71.1803 33.424 71.9697 32.592C72.7803 31.76 73.1857 30.7467 73.1857 29.552C73.1857 28.336 72.7803 27.312 71.9697 26.48C71.1803 25.648 70.2097 25.232 69.0577 25.232C67.9057 25.232 66.9243 25.648 66.1137 26.48C65.3243 27.312 64.9297 28.336 64.9297 29.552C64.9297 30.7467 65.3243 31.76 66.1137 32.592C66.9243 33.424 67.9057 33.84 69.0577 33.84ZM79.6489 20.464V15.6H99.8089V20.464H92.4809V38H86.9769V20.464H79.6489ZM100.704 38V21.072H105.888V22.768C106.443 22.1067 107.093 21.5947 107.84 21.232C108.587 20.8693 109.419 20.688 110.336 20.688C110.827 20.7093 111.221 20.752 111.52 20.816C111.819 20.8587 112.075 20.9547 112.288 21.104V25.616C111.947 25.4667 111.563 25.3493 111.136 25.264C110.709 25.1573 110.272 25.104 109.824 25.104C109.013 25.104 108.256 25.296 107.552 25.68C106.869 26.064 106.315 26.5867 105.888 27.248V38H100.704ZM113.124 29.552C113.124 28.336 113.358 27.1947 113.828 26.128C114.318 25.04 114.969 24.1013 115.78 23.312C116.612 22.5227 117.582 21.904 118.692 21.456C119.822 20.9867 121.028 20.752 122.308 20.752C123.588 20.752 124.782 20.9867 125.892 21.456C127.022 21.904 127.993 22.5227 128.804 23.312C129.636 24.1013 130.286 25.04 130.756 26.128C131.246 27.1947 131.492 28.336 131.492 29.552C131.492 30.768 131.246 31.92 130.756 33.008C130.286 34.0747 129.636 35.0027 128.804 35.792C127.993 36.5813 127.022 37.2 125.892 37.648C124.782 38.096 123.588 38.32 122.308 38.32C121.028 38.32 119.822 38.096 118.692 37.648C117.582 37.2 116.612 36.5813 115.78 35.792C114.969 35.0027 114.318 34.0747 113.828 33.008C113.358 31.92 113.124 30.768 113.124 29.552ZM122.308 33.84C123.46 33.84 124.43 33.424 125.22 32.592C126.03 31.76 126.436 30.7467 126.436 29.552C126.436 28.336 126.03 27.312 125.22 26.48C124.43 25.648 123.46 25.232 122.308 25.232C121.156 25.232 120.174 25.648 119.364 26.48C118.574 27.312 118.18 28.336 118.18 29.552C118.18 30.7467 118.574 31.76 119.364 32.592C120.174 33.424 121.156 33.84 122.308 33.84ZM1.50666 92L7.93866 83.424L1.60266 75.072H7.61866L10.9467 79.616L14.2427 75.072H20.0347L13.7947 83.36L20.3867 92H14.3707L10.8187 87.168L7.29866 92H1.50666Z" fill="#A1A6B6"/>
</g>
<defs>
<clipPath id="clip0">
<rect width="170" height="50" fill="white"/>
</clipPath>
</defs>
</svg>
