<svg width="170" height="50" viewBox="0 0 170 50" fill="none" xmlns="http://www.w3.org/2000/svg">
<path d="M52.784 4.89453V34.009H46.3669V6.28093L52.784 4.89453Z" fill="#A1A6B6"/>
<path d="M55.7833 23.5515C55.7833 22.0463 56.0738 20.6335 56.6548 19.3131C57.2621 17.9663 58.0676 16.8044 59.071 15.8273C60.1009 14.8502 61.3025 14.0844 62.6757 13.5298C64.0753 12.9489 65.5673 12.6584 67.1518 12.6584C68.7362 12.6584 70.2151 12.9489 71.5883 13.5298C72.9879 14.0844 74.1894 14.8502 75.1929 15.8273C76.2228 16.8044 77.0282 17.9663 77.6092 19.3131C78.2166 20.6335 78.5203 22.0463 78.5203 23.5515C78.5203 25.0568 78.2166 26.4828 77.6092 27.8296C77.0282 29.1499 76.2228 30.2987 75.1929 31.2758C74.1894 32.2528 72.9879 33.0187 71.5883 33.5732C70.2151 34.1278 68.7362 34.4051 67.1518 34.4051C65.5673 34.4051 64.0753 34.1278 62.6757 33.5732C61.3025 33.0187 60.1009 32.2528 59.071 31.2758C58.0676 30.2987 57.2621 29.1499 56.6548 27.8296C56.0738 26.4828 55.7833 25.0568 55.7833 23.5515ZM67.1518 28.8595C68.5778 28.8595 69.7793 28.3445 70.7564 27.3146C71.7599 26.2847 72.2617 25.0304 72.2617 23.5515C72.2617 22.0463 71.7599 20.7787 70.7564 19.7488C69.7793 18.7189 68.5778 18.204 67.1518 18.204C65.7258 18.204 64.511 18.7189 63.5075 19.7488C62.5305 20.7787 62.0419 22.0463 62.0419 23.5515C62.0419 25.0304 62.5305 26.2847 63.5075 27.3146C64.511 28.3445 65.7258 28.8595 67.1518 28.8595Z" fill="#A1A6B6"/>
<path d="M79.9057 31.6719L82.9558 27.3542C84.2762 28.1465 85.4778 28.7274 86.5605 29.0971C87.6432 29.4404 88.7127 29.6121 89.769 29.6121C90.8253 29.6121 91.6571 29.4668 92.2645 29.1764C92.8983 28.8595 93.2152 28.4501 93.2152 27.9484C93.2152 27.5523 93.0435 27.2354 92.7002 26.9977C92.3569 26.7336 91.8156 26.5488 91.0762 26.4432L86.917 25.8094C84.8572 25.4925 83.2727 24.8059 82.1636 23.7496C81.0545 22.6669 80.4999 21.2673 80.4999 19.5508C80.4999 17.4382 81.3053 15.7745 82.9162 14.5597C84.5271 13.345 86.7321 12.7376 89.5313 12.7376C91.0366 12.7376 92.5418 12.9621 94.047 13.411C95.5787 13.8335 96.9915 14.4541 98.2855 15.2727L95.2354 19.3923C94.0998 18.7321 93.0171 18.2568 91.9872 17.9663C90.9573 17.6494 89.9274 17.491 88.8975 17.491C88.0789 17.491 87.4187 17.6362 86.917 17.9267C86.4152 18.1908 86.1644 18.5473 86.1644 18.9962C86.1644 19.4187 86.3492 19.762 86.7189 20.0261C87.0886 20.2638 87.7224 20.4486 88.6203 20.5807L92.7795 21.2145C94.8393 21.5049 96.4237 22.1915 97.5328 23.2742C98.6684 24.3306 99.2361 25.6773 99.2361 27.3146C99.2361 28.3181 98.9985 29.2556 98.5231 30.127C98.0478 30.9985 97.3876 31.7511 96.5426 32.3849C95.7239 33.0187 94.7336 33.5204 93.5717 33.8901C92.4098 34.2334 91.1554 34.4051 89.8086 34.4051C87.828 34.4051 85.9795 34.1806 84.263 33.7317C82.5729 33.2563 81.1205 32.5697 79.9057 31.6719Z" fill="#A1A6B6"/>
<path d="M100.06 31.6719L103.11 27.3542C104.43 28.1465 105.632 28.7274 106.714 29.0971C107.797 29.4404 108.867 29.6121 109.923 29.6121C110.979 29.6121 111.811 29.4668 112.418 29.1764C113.052 28.8595 113.369 28.4501 113.369 27.9484C113.369 27.5523 113.197 27.2354 112.854 26.9977C112.511 26.7336 111.969 26.5488 111.23 26.4432L107.071 25.8094C105.011 25.4925 103.427 24.8059 102.317 23.7496C101.208 22.6669 100.654 21.2673 100.654 19.5508C100.654 17.4382 101.459 15.7745 103.07 14.5597C104.681 13.345 106.886 12.7376 109.685 12.7376C111.19 12.7376 112.696 12.9621 114.201 13.411C115.733 13.8335 117.145 14.4541 118.439 15.2727L115.389 19.3923C114.254 18.7321 113.171 18.2568 112.141 17.9663C111.111 17.6494 110.081 17.491 109.051 17.491C108.233 17.491 107.573 17.6362 107.071 17.9267C106.569 18.1908 106.318 18.5473 106.318 18.9962C106.318 19.4187 106.503 19.762 106.873 20.0261C107.242 20.2638 107.876 20.4486 108.774 20.5807L112.933 21.2145C114.993 21.5049 116.578 22.1915 117.687 23.2742C118.822 24.3306 119.39 25.6773 119.39 27.3146C119.39 28.3181 119.152 29.2556 118.677 30.127C118.202 30.9985 117.541 31.7511 116.696 32.3849C115.878 33.0187 114.888 33.5204 113.726 33.8901C112.564 34.2334 111.309 34.4051 109.962 34.4051C107.982 34.4051 106.133 34.1806 104.417 33.7317C102.727 33.2563 101.274 32.5697 100.06 31.6719Z" fill="#A1A6B6"/>
<path d="M141.243 31.2362C139.922 32.3453 138.562 33.1507 137.163 33.6525C135.789 34.1542 134.231 34.4051 132.488 34.4051C130.904 34.4051 129.412 34.1278 128.012 33.5732C126.613 33.0187 125.398 32.2528 124.368 31.2758C123.365 30.2987 122.559 29.1499 121.952 27.8296C121.371 26.4828 121.08 25.0568 121.08 23.5515C121.08 22.0463 121.358 20.6335 121.912 19.3131C122.493 17.9663 123.272 16.8044 124.249 15.8273C125.226 14.8502 126.375 14.0844 127.695 13.5298C129.042 12.9753 130.481 12.698 132.013 12.698C133.545 12.698 134.958 12.9885 136.251 13.5694C137.545 14.1504 138.655 14.9426 139.579 15.9461C140.53 16.9496 141.269 18.1644 141.797 19.5904C142.325 20.99 142.589 22.5084 142.589 24.1457V25.7302H127.656C128.078 26.7072 128.739 27.5127 129.636 28.1465C130.534 28.7538 131.591 29.0575 132.805 29.0575C133.677 29.0575 134.469 28.9255 135.182 28.6614C135.895 28.3709 136.502 27.9748 137.004 27.4731L141.243 31.2362ZM131.894 17.9267C130.838 17.9267 129.927 18.2172 129.161 18.7982C128.395 19.3791 127.854 20.1978 127.537 21.2541H136.291C135.948 20.2506 135.38 19.4451 134.588 18.8378C133.822 18.2304 132.924 17.9267 131.894 17.9267Z" fill="#A1A6B6"/>
<path d="M152.006 4.89453V34.009H145.589V6.28093L152.006 4.89453Z" fill="#A1A6B6"/>
<path d="M18 24.1591C18 22.6033 18.2996 21.143 18.8989 19.7783C19.5255 18.3863 20.3563 17.1854 21.3915 16.1755C22.4538 15.1656 23.6933 14.374 25.1098 13.8009C26.5535 13.2004 28.0926 12.9001 29.7271 12.9001C31.3615 12.9001 32.887 13.2004 34.3035 13.8009C35.7472 14.374 36.9867 15.1656 38.0218 16.1755C39.0842 17.1854 39.9151 18.3863 40.5144 19.7783C41.1409 21.143 41.4542 22.6033 41.4542 24.1591C41.4542 25.7148 41.1409 27.1887 40.5144 28.5807C39.9151 29.9455 39.0842 31.1328 38.0218 32.1427C36.9867 33.1526 35.7472 33.9441 34.3035 34.5173C32.887 35.0905 31.3615 35.377 29.7271 35.377C28.0926 35.377 26.5535 35.0905 25.1098 34.5173C23.6933 33.9441 22.4538 33.1526 21.3915 32.1427C20.3563 31.1328 19.5255 29.9455 18.8989 28.5807C18.2996 27.1887 18 25.7148 18 24.1591ZM29.7271 29.6452C31.1981 29.6452 32.4375 29.113 33.4454 28.0485C34.4806 26.984 34.9981 25.6876 34.9981 24.1591C34.9981 22.6033 34.4806 21.2932 33.4454 20.2287C32.4375 19.1642 31.1981 18.632 29.7271 18.632C28.2561 18.632 27.003 19.1642 25.9679 20.2287C24.96 21.2932 24.456 22.6033 24.456 24.1591C24.456 25.6876 24.96 26.984 25.9679 28.0485C27.003 29.113 28.2561 29.6452 29.7271 29.6452Z" fill="#A1A6B6"/>
<path d="M43.32 12.9001H29.7271C30.9018 14.9802 34.3588 18.7637 38.789 18.7637C43.2193 18.7637 43.6557 14.9802 43.32 12.9001Z" fill="#A1A6B6"/>
<path d="M18 40.2634H40.4769V46.127H18V40.2634Z" fill="#A1A6B6"/>
</svg>
