<svg width="170" height="50" viewBox="0 0 170 50" fill="none" xmlns="http://www.w3.org/2000/svg">
<path fill-rule="evenodd" clip-rule="evenodd" d="M42.2425 13.813C41.009 12.197 39.3846 10.9274 37.3691 10.0042C35.0289 8.89425 32.3205 8.33929 29.244 8.33929H15.6364V35.4419H29.244C32.3205 35.4419 35.0289 34.8998 37.3691 33.8157C39.3841 32.8707 41.0084 31.5888 42.2418 29.9701C39.0269 38.061 31.1267 43.7811 21.8905 43.7811C9.80073 43.7811 0 33.9804 0 21.8905C0 9.80073 9.80073 0 21.8905 0C31.1275 0 39.0282 5.72102 42.2425 13.813ZM33.6221 26.6529C32.4388 27.7628 30.848 28.3178 28.8496 28.3178H24.9448V15.4634H28.8496C30.848 15.4634 32.4388 16.0313 33.6221 17.167C34.8317 18.2769 35.4364 19.8514 35.4364 21.8906C35.4364 23.9297 34.8317 25.5172 33.6221 26.6529Z" fill="#A1A6B6"/>
<path d="M65.6311 26.8732C65.6311 26.9774 65.5998 27.5299 65.5372 28.5306H53.6538C53.904 29.1769 54.3209 29.6773 54.9047 30.0317C55.4884 30.3652 56.2181 30.532 57.0937 30.532C57.8443 30.532 58.4697 30.4382 58.9701 30.2506C59.4913 30.063 60.0542 29.7398 60.6588 29.2811L64.3489 33.0025C62.6811 34.8372 60.1897 35.7545 56.8748 35.7545C54.8109 35.7545 52.9971 35.3792 51.4335 34.6287C49.8699 33.8573 48.6607 32.7941 47.8059 31.4389C46.9511 30.0838 46.5237 28.5619 46.5237 26.8732C46.5237 25.1636 46.9407 23.6417 47.7746 22.3074C48.6294 20.9523 49.7865 19.8995 51.2458 19.1489C52.7261 18.3984 54.3835 18.0232 56.2181 18.0232C57.9485 18.0232 59.5226 18.3671 60.9402 19.0551C62.3788 19.7431 63.515 20.7543 64.3489 22.0885C65.2037 23.4228 65.6311 25.0177 65.6311 26.8732ZM56.2807 22.8391C55.551 22.8391 54.9464 23.0371 54.4669 23.4332C53.9874 23.8294 53.6747 24.3923 53.5287 25.1219H59.0326C58.8867 24.4131 58.574 23.8606 58.0945 23.4645C57.615 23.0476 57.0104 22.8391 56.2807 22.8391Z" fill="#A1A6B6"/>
<path d="M74.4396 18.0232C77.4417 18.0232 79.735 18.7007 81.3194 20.0558C82.9039 21.3901 83.6961 23.4541 83.6961 26.2477V35.4418H77.129V33.1902C76.3159 34.8997 74.7002 35.7545 72.2818 35.7545C70.9266 35.7545 69.7696 35.5252 68.8106 35.0665C67.8724 34.587 67.1531 33.9511 66.6528 33.1589C66.1733 32.3458 65.9335 31.4389 65.9335 30.4382C65.9335 28.7495 66.5798 27.4674 67.8724 26.5917C69.165 25.7161 71.1247 25.2783 73.7516 25.2783H76.5973C76.368 23.944 75.2943 23.2769 73.3763 23.2769C72.6049 23.2769 71.8231 23.402 71.0309 23.6521C70.2387 23.8815 69.5611 24.2046 68.9982 24.6216L66.7466 19.962C67.7265 19.3574 68.9044 18.8883 70.2804 18.5548C71.6772 18.2004 73.0636 18.0232 74.4396 18.0232ZM74.4083 31.5015C74.9086 31.5015 75.3569 31.366 75.753 31.0949C76.1491 30.8239 76.441 30.4174 76.6286 29.8753V28.687H74.8774C73.4389 28.687 72.7196 29.1665 72.7196 30.1255C72.7196 30.5216 72.8655 30.8552 73.1574 31.1262C73.4701 31.3764 73.8871 31.5015 74.4083 31.5015Z" fill="#A1A6B6"/>
<path d="M86.1251 12.2378H93.1926V35.4418H86.1251V12.2378Z" fill="#A1A6B6"/>
<path d="M104.737 35.7545C102.84 35.7545 101.131 35.3792 99.6088 34.6287C98.1077 33.8573 96.9298 32.8045 96.075 31.4702C95.2203 30.1151 94.7929 28.5827 94.7929 26.8732C94.7929 25.1636 95.2203 23.6417 96.075 22.3074C96.9298 20.9523 98.1077 19.8995 99.6088 19.1489C101.131 18.3984 102.84 18.0232 104.737 18.0232C106.655 18.0232 108.365 18.3984 109.866 19.1489C111.388 19.8995 112.566 20.9523 113.4 22.3074C114.255 23.6417 114.682 25.1636 114.682 26.8732C114.682 28.5827 114.255 30.1151 113.4 31.4702C112.566 32.8045 111.388 33.8573 109.866 34.6287C108.365 35.3792 106.655 35.7545 104.737 35.7545ZM104.737 30.2506C105.551 30.2506 106.218 29.9587 106.739 29.375C107.26 28.7704 107.521 27.9364 107.521 26.8732C107.521 25.8099 107.26 24.9864 106.739 24.4027C106.218 23.8189 105.551 23.5271 104.737 23.5271C103.924 23.5271 103.257 23.8189 102.736 24.4027C102.215 24.9864 101.954 25.8099 101.954 26.8732C101.954 27.9364 102.215 28.7704 102.736 29.375C103.257 29.9587 103.924 30.2506 104.737 30.2506Z" fill="#A1A6B6"/>
<path d="M138.91 18.0232C140.974 18.0232 142.621 18.659 143.851 19.9308C145.102 21.2025 145.727 23.1205 145.727 25.6848V35.4418H138.659V26.9045C138.659 24.9447 138.024 23.9649 136.752 23.9649C136.085 23.9649 135.543 24.215 135.126 24.7154C134.73 25.2158 134.532 26.008 134.532 27.0921V35.4418H127.464V26.9045C127.464 24.9447 126.828 23.9649 125.556 23.9649C124.889 23.9649 124.347 24.215 123.93 24.7154C123.534 25.2158 123.336 26.008 123.336 27.0921V35.4418H116.269V18.3359H122.992V19.9308C124.264 18.659 125.88 18.0232 127.839 18.0232C128.986 18.0232 130.018 18.2421 130.935 18.6799C131.853 19.0968 132.603 19.7431 133.187 20.6187C133.875 19.7848 134.709 19.149 135.689 18.7111C136.668 18.2525 137.742 18.0232 138.91 18.0232Z" fill="#A1A6B6"/>
</svg>
