<svg width="170" height="50" viewBox="0 0 170 50" fill="none" xmlns="http://www.w3.org/2000/svg">
<path d="M58.6447 17.9365H65.3245V45.7813H58.6447V17.9365Z" fill="#A1A6B6"/>
<path d="M79.5553 25.2542C82.8576 25.2542 85.3969 26.2299 87.1732 28.1813C88.9494 30.1327 89.8376 32.8096 89.8376 36.212C89.8376 36.7374 89.8251 37.1377 89.8001 37.4129H75.69C76.0153 38.5637 76.5782 39.4518 77.3787 40.0772C78.1793 40.6777 79.155 40.9779 80.3058 40.9779C81.1814 40.9779 82.0195 40.8028 82.8201 40.4525C83.6457 40.1023 84.3962 39.5894 85.0717 38.9139L88.5617 42.4039C87.5109 43.5797 86.235 44.4804 84.734 45.1058C83.2579 45.7062 81.5817 46.0065 79.7054 46.0065C77.5288 46.0065 75.6275 45.5812 74.0013 44.7305C72.3752 43.8799 71.1243 42.6791 70.2487 41.128C69.3981 39.5769 68.9728 37.7756 68.9728 35.7242C68.9728 33.6477 69.4106 31.8214 70.2862 30.2453C71.1618 28.6441 72.4002 27.4183 74.0013 26.5677C75.6025 25.692 77.4538 25.2542 79.5553 25.2542ZM83.3455 33.8478C83.3455 32.672 82.9952 31.7338 82.2947 31.0333C81.6192 30.3078 80.7186 29.945 79.5928 29.945C78.5421 29.945 77.6539 30.2953 76.9284 30.9958C76.2279 31.6963 75.7651 32.647 75.5399 33.8478H83.3455Z" fill="#A1A6B6"/>
<path d="M92.1871 25.4794L109.975 25.5169V29.5698L100.218 40.6777H110.35V45.7813H91.8494V41.7284L101.606 30.6205H92.1871V25.4794Z" fill="#A1A6B6"/>
<path d="M133.755 25.4794V45.7813H127.075V42.4789C125.699 44.8306 123.535 46.0315 120.583 46.0815C118.381 46.0815 116.618 45.381 115.292 43.98C113.991 42.554 113.34 40.6652 113.34 38.3135V25.4794H120.02V36.3996C120.02 37.5504 120.308 38.4511 120.883 39.1015C121.484 39.752 122.284 40.0772 123.285 40.0772C124.461 40.0522 125.386 39.6269 126.062 38.8013C126.737 37.9507 127.075 36.85 127.075 35.499V25.4794H133.755Z" fill="#A1A6B6"/>
<path d="M136.872 25.4794H144.527L147.792 31.1834L151.32 25.4794H158.637L152.22 35.3864L159.088 45.7813H151.395L147.792 39.5894L143.777 45.7813H136.422L143.327 35.3864L136.872 25.4794Z" fill="#A1A6B6"/>
<path fill-rule="evenodd" clip-rule="evenodd" d="M10.0389 2H34.0143C47.5656 3.04241 53.82 11.3817 53.82 21.8057V45.7811H42.3286C43.4773 45.3652 44.4708 44.825 45.3093 44.1605C47.5244 42.4014 48.6319 39.7791 48.6319 36.2936C48.6319 34.3716 48.1352 32.7429 47.1416 31.4073C46.1481 30.0717 44.7229 29.1596 42.8661 28.671C44.5112 28.052 45.7572 27.0911 46.6041 25.788C47.4511 24.485 47.8745 22.9133 47.8745 21.0728C47.8745 17.8804 46.6774 15.4454 44.2831 13.7678C41.9051 12.0902 38.4277 11.2514 33.8509 11.2514H21.0733V43.0866C15.1179 40.2024 10.6697 34.8067 10.0389 25.9754C9.95139 24.7501 10.0389 2 10.0389 2ZM29.6487 40.227V31.7004H35.6588C38.6069 31.7167 40.0809 33.2071 40.0809 36.1714C40.0809 37.4581 39.6656 38.4598 38.8349 39.1765C38.0043 39.8768 36.8153 40.227 35.2679 40.227H29.6487ZM34.1197 26.0812H29.6487V17.8723H33.8509C35.7729 17.8723 37.1655 18.2062 38.0287 18.874C38.8919 19.5255 39.3236 20.6004 39.3236 22.0989C39.3236 23.4019 38.9245 24.3873 38.1264 25.0551C37.3283 25.7229 35.9927 26.0649 34.1197 26.0812Z" fill="#A1A6B6"/>
</svg>
