<svg width="182" height="48" viewBox="0 0 182 48" fill="none" xmlns="http://www.w3.org/2000/svg">
<g clip-path="url(#clip0)">
<path d="M23.2043 40.7569C18.1596 40.7569 12.8201 39.377 8.76234 37.0028C4.64568 34.594 1.96321 32.4208 0.437808 31.0218C-0.112317 30.5172 -0.149442 29.6621 0.355214 29.1119C0.859402 28.5619 1.71478 28.5246 2.26509 29.0294C3.69346 30.3392 6.21712 32.381 10.1277 34.6694C16.9914 38.6855 30.4293 40.5913 37.4738 31.9269C38.8342 30.2542 39.3616 28.8946 39.92 27.4551C40.6624 25.5413 41.4898 23.4078 44.2404 20.4951C43.8889 20.2586 43.5881 19.9677 43.4052 19.6119C43.2942 19.3957 43.1733 19.1515 43.0415 18.8848C41.4964 15.7611 38.6207 9.94673 31.9542 9.94673C28.365 9.94673 25.274 12.253 22.767 16.8011C22.4066 17.4549 21.584 17.6927 20.9306 17.3324C20.2768 16.9721 20.0389 16.1498 20.3992 15.4961C23.4177 10.0199 27.3054 7.24316 31.9541 7.24316C35.5727 7.24316 38.7176 8.61079 41.3022 11.3078C43.3849 13.4813 44.6364 16.0117 45.4647 17.6861C45.5662 17.8913 45.6607 18.0825 45.7492 18.2569C45.9734 18.4028 46.5548 18.6072 46.946 18.6957C47.4349 18.8062 47.8224 19.1783 47.953 19.6621C48.0836 20.1461 47.9355 20.6625 47.5683 21.0041C44.0548 24.2712 43.2706 26.2927 42.4402 28.4328C41.8308 30.0043 41.2003 31.6292 39.5713 33.6325C35.0013 39.2533 28.6074 40.6021 24.0482 40.744C23.7684 40.7526 23.4866 40.7569 23.2043 40.7569Z" fill="#242F51"/>
<path d="M8.96761 27.4884C12.5065 30.1273 17.1969 30.4854 20.8419 30.2337C24.1992 30.0018 26.5554 26.8421 25.8197 23.5583C25.021 19.9929 23.3398 15.5997 19.8009 12.9608C13.086 7.95362 2.22595 11.1582 2.22595 11.1582C2.22595 11.1582 2.25286 22.4812 8.96761 27.4884Z" fill="#14AFB4"/>
<path d="M18.9298 31.6525C18.9295 31.6525 18.9292 31.6525 18.929 31.6525C14.5239 31.6525 10.9006 30.616 8.15943 28.5719C0.985028 23.2218 0.875153 11.6512 0.874028 11.1612C0.872528 10.5609 1.26722 10.0314 1.84312 9.86142C1.99059 9.81792 5.50246 8.79614 9.83906 8.79614C14.2439 8.79614 17.8674 9.83264 20.6087 11.877C24.5574 14.8215 26.3392 19.6938 27.1386 23.2627C27.5755 25.2129 27.142 27.2488 25.9492 28.8484C24.7565 30.4481 22.9287 31.4445 20.9348 31.5821C20.2574 31.6289 19.5829 31.6525 18.9298 31.6525ZM3.62756 12.202C3.828 15.0053 4.82643 22.714 9.7755 26.4045C12.0396 28.0929 15.1192 28.949 18.929 28.949C18.9291 28.949 18.9293 28.949 18.9295 28.949C19.5208 28.949 20.1327 28.9275 20.7487 28.885C21.9553 28.8015 23.0608 28.1992 23.7818 27.2322C24.5029 26.2652 24.7648 25.0336 24.5004 23.8536C23.8008 20.7306 22.2774 16.4938 18.9925 14.0443C16.7284 12.3557 13.6486 11.4997 9.83896 11.4997C7.2225 11.4996 4.89806 11.919 3.62756 12.202Z" fill="#242F51"/>
<path d="M36.0914 20.3457H35.01C34.2635 20.3457 33.6582 19.7405 33.6582 18.9939C33.6582 18.2472 34.2635 17.6421 35.01 17.6421H36.0914C36.8378 17.6421 37.4432 18.2472 37.4432 18.9939C37.4432 19.7405 36.8379 20.3457 36.0914 20.3457Z" fill="#242F51"/>
</g>
<path d="M63.984 32.088L66.048 31.632V15.864L63.984 15.408V14.52H70.536C72.648 14.52 74.368 14.656 75.696 14.928C77.024 15.184 78.168 15.632 79.128 16.272C80.328 17.072 81.264 18.12 81.936 19.416C82.624 20.696 82.968 22.136 82.968 23.736C82.968 25.4 82.6 26.928 81.864 28.32C81.144 29.712 80.168 30.8 78.936 31.584C78.152 32.08 77.288 32.44 76.344 32.664C75.4 32.888 74.248 33 72.888 33H63.984V32.088ZM72.624 31.704C74.496 31.704 75.888 31.168 76.8 30.096C77.84 28.864 78.36 26.744 78.36 23.736C78.36 22.264 78.232 21.032 77.976 20.04C77.736 19.048 77.344 18.232 76.8 17.592C75.856 16.44 74.368 15.864 72.336 15.864H70.176V30.264C70.176 30.776 70.368 31.144 70.752 31.368C71.136 31.592 71.76 31.704 72.624 31.704ZM91.7743 20.04C93.1983 20.04 94.4223 20.336 95.4463 20.928C96.4863 21.504 97.2703 22.296 97.7983 23.304C98.3423 24.296 98.6143 25.408 98.6143 26.64C98.6143 27.872 98.3423 28.992 97.7983 30C97.2703 30.992 96.4863 31.784 95.4463 32.376C94.4223 32.952 93.1983 33.24 91.7743 33.24C90.3503 33.24 89.1183 32.952 88.0783 32.376C87.0543 31.784 86.2703 30.992 85.7263 30C85.1983 28.992 84.9343 27.872 84.9343 26.64C84.9343 25.408 85.1983 24.296 85.7263 23.304C86.2703 22.296 87.0543 21.504 88.0783 20.928C89.1183 20.336 90.3503 20.04 91.7743 20.04ZM88.9663 26.64C88.9663 28.096 89.1663 29.36 89.5663 30.432C89.9823 31.488 90.7183 32.016 91.7743 32.016C92.8143 32.016 93.5423 31.48 93.9583 30.408C94.3743 29.336 94.5823 28.08 94.5823 26.64C94.5823 25.2 94.3743 23.952 93.9583 22.896C93.5583 21.824 92.8303 21.288 91.7743 21.288C90.7183 21.288 89.9823 21.824 89.5663 22.896C89.1663 23.952 88.9663 25.2 88.9663 26.64ZM115.453 32.16V33H108.253V32.16L109.933 31.68V26.304C109.933 25.36 109.917 24.696 109.885 24.312C109.853 23.928 109.789 23.632 109.693 23.424C109.533 23.024 109.269 22.72 108.901 22.512C108.533 22.304 108.093 22.2 107.581 22.2C107.165 22.2 106.797 22.272 106.477 22.416C106.173 22.56 105.893 22.792 105.637 23.112V31.68L107.317 32.16V33H100.117V32.16L101.917 31.68V22.44L100.093 21.768V21.216L104.989 20.04H105.517V21.816C106.077 21.272 106.757 20.84 107.557 20.52C108.357 20.2 109.149 20.04 109.933 20.04C110.717 20.04 111.397 20.208 111.973 20.544C112.549 20.88 112.989 21.352 113.293 21.96C113.437 22.28 113.533 22.664 113.581 23.112C113.629 23.56 113.653 24.312 113.653 25.368V31.68L115.453 32.16ZM119.955 33.24C118.963 33.24 118.187 32.992 117.627 32.496C117.067 31.984 116.787 31.288 116.787 30.408C116.787 29.208 117.355 28.248 118.491 27.528C119.627 26.808 121.403 26.28 123.819 25.944V24.192C123.819 23.44 123.771 22.872 123.675 22.488C123.595 22.104 123.451 21.832 123.243 21.672C123.051 21.512 122.755 21.432 122.355 21.432C121.747 21.432 121.267 21.584 120.915 21.888C120.579 22.176 120.411 22.568 120.411 23.064C120.411 23.176 120.427 23.36 120.459 23.616C120.491 23.84 120.507 24.008 120.507 24.12C120.507 24.568 120.347 24.952 120.027 25.272C119.707 25.576 119.315 25.728 118.851 25.728C118.387 25.728 118.003 25.576 117.699 25.272C117.411 24.968 117.267 24.576 117.267 24.096C117.267 23.584 117.435 23.08 117.771 22.584C118.107 22.088 118.571 21.64 119.163 21.24C120.395 20.44 121.907 20.04 123.699 20.04C125.363 20.04 126.459 20.44 126.987 21.24C127.179 21.544 127.315 21.944 127.395 22.44C127.491 22.92 127.539 23.592 127.539 24.456V29.4C127.539 30.104 127.611 30.616 127.755 30.936C127.899 31.256 128.131 31.416 128.451 31.416C128.819 31.416 129.171 31.224 129.507 30.84L130.059 31.632C129.547 32.176 129.003 32.584 128.427 32.856C127.867 33.112 127.243 33.24 126.555 33.24C125.787 33.24 125.195 33.088 124.779 32.784C124.379 32.464 124.115 31.984 123.987 31.344H123.891C122.723 32.608 121.411 33.24 119.955 33.24ZM122.163 30.984C122.835 30.984 123.387 30.752 123.819 30.288V27.072C123.035 27.232 122.427 27.408 121.995 27.6C121.563 27.792 121.251 28.032 121.059 28.32C120.883 28.592 120.795 28.96 120.795 29.424C120.795 29.952 120.907 30.344 121.131 30.6C121.355 30.856 121.699 30.984 122.163 30.984ZM135.602 33.24C135.122 33.24 134.65 33.176 134.186 33.048C133.738 32.936 133.37 32.776 133.082 32.568C132.746 32.312 132.506 31.968 132.362 31.536C132.234 31.088 132.17 30.52 132.17 29.832V21.48H130.466L130.322 20.736L135.146 17.064L135.89 17.184V20.28H139.61L139.25 21.48H135.89V29.016C135.89 29.608 135.906 30.024 135.938 30.264C135.97 30.504 136.034 30.696 136.13 30.84C136.402 31.288 136.826 31.512 137.402 31.512C138.01 31.512 138.506 31.288 138.89 30.84L139.442 31.632C139.026 32.16 138.482 32.56 137.81 32.832C137.154 33.104 136.418 33.24 135.602 33.24ZM153.248 26.04H144.512C144.528 27.64 144.848 28.832 145.472 29.616C146.096 30.384 147.032 30.768 148.28 30.768C149.016 30.768 149.736 30.632 150.44 30.36C151.16 30.088 151.744 29.696 152.192 29.184L152.36 28.992L153.032 29.568L152.912 29.856C152.48 30.912 151.736 31.744 150.68 32.352C149.64 32.944 148.456 33.24 147.128 33.24C145.816 33.24 144.656 32.976 143.648 32.448C142.656 31.904 141.888 31.152 141.344 30.192C140.8 29.216 140.528 28.096 140.528 26.832C140.528 25.504 140.832 24.328 141.44 23.304C142.048 22.264 142.896 21.464 143.984 20.904C145.072 20.328 146.32 20.04 147.728 20.04C149.552 20.04 150.944 20.536 151.904 21.528C152.864 22.52 153.376 23.976 153.44 25.896L153.248 26.04ZM149.456 24.72C149.52 24.528 149.552 24.224 149.552 23.808C149.552 22.976 149.368 22.344 149 21.912C148.632 21.48 148.104 21.264 147.416 21.264C146.6 21.264 145.944 21.576 145.448 22.2C144.968 22.824 144.672 23.72 144.56 24.888L149.456 24.72ZM163.796 20.016C164.388 20.016 164.884 20.184 165.284 20.52C165.684 20.856 165.884 21.28 165.884 21.792C165.884 22.272 165.74 22.68 165.452 23.016C165.164 23.336 164.812 23.496 164.396 23.496C163.964 23.496 163.572 23.344 163.22 23.04C162.98 22.832 162.764 22.688 162.572 22.608C162.396 22.512 162.212 22.464 162.02 22.464C161.572 22.464 161.196 22.664 160.892 23.064C160.652 23.368 160.5 23.576 160.436 23.688C160.388 23.8 160.356 23.896 160.34 23.976C160.324 24.04 160.316 24.088 160.316 24.12V31.68L163.46 32.16V33H154.796V32.16L156.596 31.68V22.44L154.772 21.768V21.192L159.692 20.04H160.196V22.2C160.804 21.496 161.412 20.96 162.02 20.592C162.644 20.208 163.236 20.016 163.796 20.016ZM173.454 20.04C174.878 20.04 176.102 20.336 177.126 20.928C178.166 21.504 178.95 22.296 179.478 23.304C180.022 24.296 180.294 25.408 180.294 26.64C180.294 27.872 180.022 28.992 179.478 30C178.95 30.992 178.166 31.784 177.126 32.376C176.102 32.952 174.878 33.24 173.454 33.24C172.03 33.24 170.798 32.952 169.758 32.376C168.734 31.784 167.95 30.992 167.406 30C166.878 28.992 166.614 27.872 166.614 26.64C166.614 25.408 166.878 24.296 167.406 23.304C167.95 22.296 168.734 21.504 169.758 20.928C170.798 20.336 172.03 20.04 173.454 20.04ZM170.646 26.64C170.646 28.096 170.846 29.36 171.246 30.432C171.662 31.488 172.398 32.016 173.454 32.016C174.494 32.016 175.222 31.48 175.638 30.408C176.054 29.336 176.262 28.08 176.262 26.64C176.262 25.2 176.054 23.952 175.638 22.896C175.238 21.824 174.51 21.288 173.454 21.288C172.398 21.288 171.662 21.824 171.246 22.896C170.846 23.952 170.646 25.2 170.646 26.64Z" fill="#242F51"/>
<defs>
<clipPath id="clip0">
<rect width="48" height="48" fill="white"/>
</clipPath>
</defs>
</svg>
